<svg width="30" height="30" viewBox="0 0 30 30" fill="none" xmlns="http://www.w3.org/2000/svg">
<g clip-path="url(#clip0_8_84)">
<circle cx="15" cy="15" r="14" fill="white"/>
<path d="M15 0C18.9782 0 22.7936 1.58035 25.6066 4.3934C28.4196 7.20644 30 11.0218 30 15C30 18.9782 28.4196 22.7936 25.6066 25.6066C22.7936 28.4196 18.9782 30 15 30C11.0218 30 7.20644 28.4196 4.3934 25.6066C1.58035 22.7936 0 18.9782 0 15C0 11.0218 1.58035 7.20644 4.3934 4.3934C7.20644 1.58035 11.0218 0 15 0ZM15 2.45C8.1075 2.45 2.5 8.0575 2.5 15C2.49678 17.6386 3.32532 20.2112 4.86787 22.352C6.41041 24.4928 8.58847 26.0929 11.0925 26.925C11.1298 26.9306 11.1674 26.9348 11.205 26.9375C11.7125 26.9625 11.9025 26.615 11.9025 26.3125L11.885 24.1775C8.41 24.935 7.675 22.4925 7.675 22.4925C7.1075 21.0425 6.2875 20.6575 6.2875 20.6575C5.1525 19.8775 6.3725 19.8925 6.3725 19.8925C7.285 19.9575 7.8825 20.6125 8.1425 20.9675L8.2875 21.1875C9.4025 23.105 11.2125 22.5525 11.925 22.2325C12.04 21.42 12.36 20.8675 12.7175 20.5525C9.9425 20.235 7.025 19.1575 7.025 14.3475C7.025 12.9775 7.5125 11.8575 8.3125 10.9775L8.2375 10.765C8.0775 10.2575 7.8575 9.12 8.435 7.655L8.535 7.6375C8.845 7.5975 9.905 7.605 11.8725 8.9425C12.8917 8.66373 13.9434 8.52166 15 8.52C16.0625 8.525 17.1325 8.665 18.13 8.945C20.5175 7.32 21.565 7.655 21.565 7.655C22.245 9.385 21.815 10.66 21.69 10.98C22.49 11.855 22.9725 12.9775 22.9725 14.3475C22.9725 19.1725 20.05 20.2325 17.265 20.5425C17.715 20.93 18.115 21.6975 18.115 22.8675L18.1 26.3125C18.1 26.6375 18.3125 27.0175 18.9075 26.925C21.4115 26.0929 23.5896 24.4928 25.1321 22.352C26.6747 20.2112 27.5032 17.6386 27.5 15C27.5 8.0575 21.8925 2.45 15 2.45Z" fill="black"/>
</g>
<defs>
<clipPath id="clip0_8_84">
<rect width="30" height="30" fill="white"/>
</clipPath>
</defs>
</svg>
