<svg width="30" height="30" viewBox="0 0 30 30" fill="none" xmlns="http://www.w3.org/2000/svg">
<g clip-path="url(#clip0_12_13)">
<path d="M15 30C23.2844 30 30 23.2844 30 15C30 6.71562 23.2844 0 15 0C6.71562 0 0 6.71562 0 15C0 23.2844 6.71562 30 15 30Z" fill="white"/>
<path d="M8.53124 8.23062V13.3331C9.30812 12.4069 10.2394 11.9406 11.3194 11.9406C11.8756 11.9406 12.3737 12.0469 12.8206 12.2575C13.2687 12.4669 13.6037 12.7356 13.83 13.0619C14.0575 13.3912 14.2112 13.7519 14.2944 14.1494C14.3769 14.545 14.4181 15.1606 14.4181 15.9956V21.4512H12.0044V16.5375C12.0044 15.5625 11.9606 14.945 11.8687 14.6825C11.7827 14.4254 11.6119 14.205 11.3844 14.0575C11.1519 13.9006 10.8625 13.8231 10.5131 13.8231C10.1131 13.8231 9.75437 13.9231 9.44249 14.1219C9.12374 14.3219 8.89499 14.6206 8.74999 15.02C8.60249 15.42 8.52874 16.0106 8.53124 16.7925L8.52874 21.4512H6.11812V8.23062H8.53187M18.0356 8.23062V13.3331C18.8131 12.4069 19.7437 11.9406 20.8231 11.9406C21.3775 11.9406 21.8794 12.0469 22.3269 12.2575C22.7731 12.4669 23.1081 12.7356 23.3331 13.0619C23.5602 13.3891 23.7182 13.7591 23.7975 14.1494C23.8806 14.545 23.9219 15.1606 23.9219 15.9956V21.4512H21.5106V16.5375C21.5106 15.5625 21.465 14.945 21.3731 14.6825C21.287 14.425 21.1157 14.2045 20.8875 14.0575C20.6575 13.9006 20.3656 13.8231 20.0162 13.8231C19.6169 13.8231 19.2581 13.9231 18.9456 14.1219C18.6312 14.3219 18.4012 14.6206 18.2544 15.02C18.1094 15.42 18.0356 16.0106 18.0356 16.7925V21.4512H15.625V8.23062H18.0356Z" fill="black"/>
<path fill-rule="evenodd" clip-rule="evenodd" d="M15 28C22.1798 28 28 22.1798 28 15C28 7.82019 22.1798 2 15 2C7.82019 2 2 7.82019 2 15C2 22.1798 7.82019 28 15 28ZM30 15C30 23.2844 23.2844 30 15 30C6.71562 30 0 23.2844 0 15C0 6.71562 6.71562 0 15 0C23.2844 0 30 6.71562 30 15Z" fill="black"/>
</g>
<defs>
<clipPath id="clip0_12_13">
<rect width="30" height="30" fill="white"/>
</clipPath>
</defs>
</svg>
