<svg width="30" height="30" viewBox="0 0 30 30" fill="none" xmlns="http://www.w3.org/2000/svg">
<path d="M3 1H27L25 26L15 29L5.5 26L3 1Z" fill="white"/>
<path d="M2 0L4.40656 27.0009L15.21 30L26.0417 26.9964L28.4529 0H2ZM23.9792 25.278L15.2714 27.6914V27.7051L15.2487 27.6982L15.2258 27.7051V27.6914L6.51811 25.278L4.46023 2.20717H26.0373L23.9792 25.278ZM19.2915 15.5333L18.9086 19.8268L15.219 20.8227L15.211 20.825L11.5237 19.8313L11.2878 17.1878H7.96291L8.42668 22.3883L15.211 24.2708H15.2145H15.219L15.2258 24.2685L22.0034 22.3883L22.9128 12.222H10.8434L10.5416 8.8309H23.202H23.2135L23.5098 5.51959H6.92135L7.81484 15.5333L19.2915 15.5333Z" fill="black"/>
</svg>
