<svg width="30" height="30" viewBox="0 0 30 30" fill="none" xmlns="http://www.w3.org/2000/svg">
<g clip-path="url(#clip0_5_47)">
<rect width="30" height="30" fill="black"/>
<path d="M2 2H28V28H2V2ZM25.8712 21.8006C25.6811 20.6111 24.906 19.6166 22.6172 18.6863C21.8218 18.3142 20.9329 18.0518 20.6704 17.4505C20.5729 17.0946 20.5559 16.9004 20.6193 16.6884C20.7842 15.9856 21.6097 15.7784 22.2613 15.9734C22.6846 16.1042 23.0738 16.4259 23.3192 16.9467C24.4404 16.2147 24.4404 16.2147 25.2196 15.728C24.9279 15.2754 24.7841 15.0764 24.5851 14.8862C23.9034 14.1201 22.9942 13.7309 21.5171 13.765L20.7509 13.8625C20.0188 14.0404 19.3209 14.4296 18.8976 14.9504C17.6658 16.3471 18.0217 18.7846 19.5151 19.7962C20.9922 20.9004 23.1542 21.1417 23.4337 22.1833C23.6921 23.4532 22.4904 23.8595 21.3009 23.7108C20.4251 23.5158 19.9384 23.0763 19.4005 22.2638L17.4196 23.4021C17.6439 23.9229 17.9063 24.1471 18.2955 24.6037C20.1789 26.5042 24.893 26.4067 25.7388 23.5158C25.7681 23.4183 25.9972 22.7496 25.8192 21.7299L25.8712 21.8006ZM16.1383 13.9503H13.7049C13.7049 16.0489 13.6919 18.1354 13.6919 20.239C13.6919 21.5723 13.7593 22.7992 13.544 23.1762C13.1841 23.9212 12.2659 23.8278 11.8467 23.697C11.4193 23.4858 11.1991 23.1932 10.9497 22.7699C10.8774 22.6554 10.827 22.5587 10.8099 22.5587L8.83394 23.7774C9.16381 24.4591 9.64644 25.0474 10.2688 25.4195C11.1959 25.9736 12.4398 26.1516 13.7431 25.8599C14.5897 25.6145 15.3218 25.1108 15.702 24.3324C16.2561 23.3249 16.1375 22.0899 16.1334 20.7054C16.1464 18.4791 16.1334 16.2537 16.1334 14.0104L16.1383 13.9503Z" fill="white"/>
</g>
<defs>
<clipPath id="clip0_5_47">
<rect width="30" height="30" fill="white"/>
</clipPath>
</defs>
</svg>
