<svg width="30" height="30" viewBox="0 0 30 30" fill="none" xmlns="http://www.w3.org/2000/svg">
<g clip-path="url(#clip0_12_22)">
<circle cx="15" cy="15" r="14" fill="white"/>
<path fill-rule="evenodd" clip-rule="evenodd" d="M11.4052 12.6568H8.19011V22.3168H11.4052V12.6568ZM11.617 9.66856C11.5961 8.72141 10.9188 8 9.81889 8C8.71904 8 8 8.72141 8 9.66856C8 10.5961 8.69782 11.3383 9.77715 11.3383H9.79773C10.9188 11.3383 11.617 10.5961 11.617 9.66856ZM23 16.778C23 13.8109 21.4139 12.4299 19.2982 12.4299C17.5912 12.4299 16.827 13.3675 16.4003 14.0253V12.657H13.1848C13.2272 13.5635 13.1848 22.317 13.1848 22.317H16.4003V16.9221C16.4003 16.6334 16.4211 16.3454 16.5062 16.1386C16.7385 15.5619 17.2676 14.9647 18.1558 14.9647C19.3197 14.9647 19.7849 15.8505 19.7849 17.1486V22.3168H22.9999L23 16.778Z" fill="black"/>
<path d="M30 15C30 23.2843 23.2843 30 15 30C6.71573 30 0 23.2843 0 15C0 6.71573 6.71573 0 15 0C23.2843 0 30 6.71573 30 15ZM1.95 15C1.95 22.2073 7.79268 28.05 15 28.05C22.2073 28.05 28.05 22.2073 28.05 15C28.05 7.79268 22.2073 1.95 15 1.95C7.79268 1.95 1.95 7.79268 1.95 15Z" fill="black"/>
</g>
<defs>
<clipPath id="clip0_12_22">
<rect width="30" height="30" fill="white"/>
</clipPath>
</defs>
</svg>
