<svg width="30" height="30" viewBox="0 0 30 30" fill="none" xmlns="http://www.w3.org/2000/svg">
<g clip-path="url(#clip0_5_34)">
<path d="M2.23114e-06 15L4 4.00001L14.9834 0.0182598L25.5 4.00001L29.4301 14.4666L25.5 25.5L14.4467 29.4483L4 25.5L2.23114e-06 15Z" fill="black"/>
<path d="M2.54997 15.2065L5.83883 6.16215L14.8696 2.88829L23.5165 6.16216L26.7479 14.7679L23.5165 23.8398L14.4283 27.0862L5.83883 23.8398L2.54997 15.2065Z" fill="white"/>
<path d="M23.1333 8.79478C24.4928 9.46497 27.598 12.8551 27.4976 13.0788C27.3958 13.302 25.9139 14.5401 25.4675 15.0272C24.4978 17.2525 23.6234 18.8459 23.3094 17.0714C22.9524 19.2055 22.1882 19.0187 21.8898 20.0612C21.4542 22.2062 20.2012 22.2794 19.6324 22.6798C19.1106 23.2015 18.3632 22.9005 17.7863 23.1965C16.321 23.7432 12.8595 23.8398 11.4756 23.2165C10.7353 22.8974 10.3647 23.3939 8.27514 21.9624C7.16191 20.8555 7.4766 20.352 7.09126 19.6082C6.45506 18.5111 6.22978 19.2271 5.73933 16.7759C5.59077 18.7549 4.52284 17.696 3.53862 15.0157C3.53862 15.0157 1.60277 13.2995 1.50245 13.0788C1.40061 12.8551 4.50579 9.46497 5.86675 8.79478C9.72517 7.04537 18.8803 7.0916 23.1333 8.79478ZM16.5393 14.6896C18.6239 15.3956 20.5938 17.6383 20.2684 19.696C20.2684 20.7645 20.1731 21.4869 20.0176 21.9735C21.7974 20.8056 21.0176 20.4301 21.7257 19.3072C22.394 18.1668 22.5282 18.5843 22.8735 17.0408C22.6668 15.4957 22.4671 12.7578 22.2203 11.9401C22.0046 11.2378 20.9612 9.778 20.288 8.88457C17.0052 7.61744 10.5052 8.02369 8.83748 8.8344C8.16528 9.72231 7.07671 11.2323 6.85599 11.9546C6.62272 12.7292 6.4108 15.3921 6.21516 16.9673C6.37641 18.4655 7.50659 19.1281 7.67517 19.9212C7.8556 21.1981 8.43854 21.6325 9.24732 22.0688C9.06673 21.5721 8.96139 20.8197 8.96139 19.6659C8.62419 17.2848 10.9378 15.2586 12.8117 14.6745C13.3297 13.2993 16.1325 13.4263 16.5393 14.6896ZM16.9024 20.4281C16.9024 18.9734 15.7101 17.7642 14.8171 17.6914L14.8697 15.5519C16.5948 15.4423 16.3945 14.1792 14.6525 14.0906C13.3139 14.1022 12.3744 15.3344 14.4282 15.5494L14.4267 17.6839C13.5337 17.6839 12.358 18.9171 12.358 20.3989C12.4972 18.9119 13.6554 18.1427 14.7138 18.1747C15.7448 18.2059 16.6753 19.0001 16.9024 20.4281ZM9.94163 13.2584C9.94163 12.9006 9.55162 12.6758 9.2413 12.8547C8.93098 13.0336 8.93098 13.4832 9.2413 13.6622C9.55162 13.8411 9.94163 13.6162 9.94163 13.2584ZM8.11361 15.5965C6.92573 14.9117 6.92573 13.1903 8.11361 12.5055C9.3015 11.8207 10.7944 12.6813 10.7944 14.051C10.7944 15.4207 9.3015 16.2814 8.11361 15.5965ZM19.2963 15.5965C18.1084 14.9117 18.1084 13.1903 19.2963 12.5055C20.4841 11.8207 21.9771 12.6813 21.9771 14.051C21.9771 15.4207 20.4841 16.2813 19.2963 15.5965ZM20.1912 13.2584C20.1912 12.9006 19.8012 12.6758 19.4909 12.8547C19.1806 13.0336 19.1806 13.4833 19.4909 13.6622C19.8012 13.8411 20.1912 13.6162 20.1912 13.2584Z" fill="black"/>
</g>
<defs>
<clipPath id="clip0_5_34">
<rect width="30" height="30" fill="white"/>
</clipPath>
</defs>
</svg>
