<svg width="30" height="30" viewBox="0 0 30 30" fill="none" xmlns="http://www.w3.org/2000/svg">
<path d="M15 19C16.933 19 18.5 17.433 18.5 15.5C18.5 13.567 16.933 12 15 12C13.067 12 11.5 13.567 11.5 15.5C11.5 17.433 13.067 19 15 19Z" fill="black" stroke="white" stroke-width="2"/>
<path d="M24.863 10.8292L24.8629 10.8293C26.298 11.3803 27.4441 12.0483 28.2389 12.8217C29.0388 13.6001 29.5 14.5048 29.5 15.5C29.5 16.4952 29.0388 17.3999 28.2389 18.1783C27.445 18.9508 26.3007 19.6182 24.8679 20.1688C24.4979 20.3199 24.1188 20.4459 23.7367 20.5626C23.8258 20.9548 23.9031 21.3434 23.9686 21.7202L23.9698 21.7267L23.9697 21.7268C24.211 23.2318 24.2066 24.5571 23.9358 25.6342C23.6635 26.7171 23.1128 27.5764 22.2505 28.0749L24.863 10.8292ZM24.863 10.8292L24.8546 10.8262M24.863 10.8292L24.8546 10.8262M24.8546 10.8262C24.4968 10.6961 24.1234 10.5646 23.7359 10.4409C23.8253 10.0475 23.9029 9.6577 23.9686 9.27978L23.9687 9.27979M24.8546 10.8262L23.9687 9.27979M23.9687 9.27979L23.9698 9.27266M23.9687 9.27979L23.9698 9.27266M23.9698 9.27266C24.211 7.75716 24.2066 6.42623 23.9358 5.349M23.9698 9.27266L23.9358 5.349M6.03022 9.27326L6.03027 9.27325C5.78897 7.76824 5.79339 6.44287 6.06422 5.36577C6.33652 4.2828 6.88726 3.4235 7.74973 2.92493L6.03022 9.27326ZM6.03022 9.27326L6.03136 9.27978M6.03022 9.27326L6.03136 9.27978M6.03136 9.27978C6.09689 9.65656 6.17419 10.0452 6.2633 10.4374C5.8812 10.5541 5.50204 10.6801 5.13207 10.8312C3.6993 11.3819 2.55497 12.0492 1.76113 12.8217C0.961172 13.6001 0.5 14.5048 0.5 15.5C0.5 16.4973 0.968652 17.402 1.7702 18.179C2.56712 18.9515 3.71232 19.6193 5.13582 20.1702L5.13578 20.1703M6.03136 9.27978L5.13578 20.1703M5.13578 20.1703L5.14544 20.1738M5.13578 20.1703L5.14544 20.1738M5.14544 20.1738C5.50321 20.3039 5.87661 20.4354 6.26411 20.5591C6.17466 20.9525 6.09709 21.3423 6.03136 21.7202L6.03131 21.7202M5.14544 20.1738L6.03131 21.7202M6.03131 21.7202L6.03017 21.7273M6.03131 21.7202L6.03017 21.7273M6.03017 21.7273C5.78904 23.2428 5.79335 24.5738 6.06422 25.651M6.03017 21.7273L6.06422 25.651M23.9358 5.349C23.6637 4.26699 23.1129 3.4112 22.2479 2.92352M23.9358 5.349L22.2479 2.92352M22.2479 2.92352C21.7359 2.62785 21.1779 2.5 20.5687 2.5C19.6681 2.5 18.6926 2.83189 17.7061 3.38926C16.8264 3.8863 15.9128 4.57685 15 5.42025C14.0872 4.57685 13.1736 3.8863 12.2939 3.38926C11.3074 2.83189 10.3319 2.5 9.43131 2.5C8.82117 2.5 8.26236 2.62825 7.74977 2.9249L22.2479 2.92352ZM6.06422 25.651C6.33629 26.733 6.88714 27.5889 7.75223 28.0765M6.06422 25.651L7.75223 28.0765M7.75223 28.0765C8.26414 28.3722 8.82215 28.5 9.43131 28.5C10.3421 28.5 11.3229 28.1688 12.3107 27.6107C13.1899 27.1139 14.0984 26.424 15.0018 25.5814C15.914 26.4241 16.827 27.114 17.7061 27.6107C18.6926 28.1681 19.6681 28.5 20.5687 28.5C21.1788 28.5 21.7376 28.3718 22.2502 28.0751L7.75223 28.0765ZM21.1166 4.90461L21.1166 4.90464L21.1212 4.90737C21.4008 5.071 21.6609 5.45091 21.7937 6.15856C21.9248 6.85647 21.9147 7.7948 21.7301 8.93528L21.73 8.93527L21.7287 8.94449C21.6852 9.24841 21.6214 9.56582 21.5429 9.89877C20.5674 9.69649 19.5507 9.55265 18.4939 9.4545C17.8678 8.5842 17.228 7.78751 16.5866 7.05258C17.2806 6.40027 17.9643 5.85779 18.6113 5.46511C19.3703 5.0044 20.0384 4.7746 20.5911 4.7746C20.8057 4.7746 20.9822 4.82399 21.1166 4.90461ZM11.5891 17.491L11.5892 17.491L11.5867 17.4866C11.2093 16.8314 10.8499 16.1583 10.5247 15.5C10.8499 14.8417 11.2093 14.1686 11.5867 13.5134L11.5867 13.5134L11.5891 13.509C11.9446 12.8772 12.3562 12.2412 12.7946 11.5976C13.5264 11.5458 14.2629 11.5277 15.0224 11.5277C15.8003 11.5277 16.5363 11.5457 17.2492 11.5971C17.6806 12.2353 18.0752 12.8726 18.4332 13.509L18.4332 13.509L18.4357 13.5134C18.8119 14.1667 19.1703 14.8378 19.4948 15.4942C19.1529 16.1572 18.8105 16.8159 18.4329 17.4917C18.0775 18.1233 17.666 18.759 17.2277 19.4024C16.4959 19.4542 15.7594 19.4723 15 19.4723C14.2221 19.4723 13.486 19.4543 12.7732 19.4029C12.3418 18.7647 11.9472 18.1274 11.5891 17.491ZM8.87876 4.90737L8.87878 4.9074L8.88342 4.90461C9.0178 4.82399 9.19432 4.7746 9.40895 4.7746C9.95116 4.7746 10.6141 4.9994 11.3731 5.45739C12.0201 5.84786 12.708 6.39021 13.4101 7.04954C12.767 7.77743 12.1284 8.58731 11.5058 9.45475C10.4451 9.5552 9.4306 9.71321 8.46289 9.90432C8.39967 9.61801 8.34628 9.33655 8.29287 9.05502C8.28487 9.01286 8.27687 8.9707 8.26884 8.92852C8.08522 7.79109 8.0755 6.85509 8.20627 6.15856C8.33913 5.45091 8.5992 5.071 8.87876 4.90737ZM5.93706 12.9725L5.93712 12.9727L5.94925 12.9678C6.23824 12.8522 6.54957 12.7455 6.87016 12.6478C7.18357 13.5792 7.55632 14.5492 7.98859 15.522C7.55909 16.4824 7.1724 17.4352 6.86652 18.3661C5.57864 17.9562 4.56142 17.472 3.85587 16.9707C3.04371 16.3938 2.7524 15.8756 2.7524 15.5C2.7524 15.1834 2.94832 14.7673 3.49528 14.2971C4.03375 13.8342 4.85296 13.3736 5.93706 12.9725ZM8.88342 26.0954L8.88344 26.0954L8.87876 26.0926C8.5992 25.929 8.33913 25.5491 8.20627 24.8414C8.07524 24.1435 8.08526 23.2052 8.26993 22.0647L8.27002 22.0647L8.27133 22.0555C8.31476 21.7516 8.3786 21.4342 8.4571 21.1012C9.43257 21.3035 10.4493 21.4473 11.5061 21.5455C12.1322 22.4158 12.772 23.2125 13.4134 23.9474C12.7194 24.5997 12.0357 25.1422 11.3887 25.5349C10.6297 25.9956 9.96156 26.2254 9.40895 26.2254C9.19431 26.2254 9.0178 26.176 8.88342 26.0954ZM21.1212 26.0926L21.1212 26.0926L21.1166 26.0954C20.9822 26.176 20.8057 26.2254 20.5911 26.2254C20.0488 26.2254 19.3859 26.0006 18.6269 25.5426C17.9799 25.1521 17.292 24.6098 16.5899 23.9505C17.233 23.2226 17.8716 22.4127 18.4942 21.5453C19.5549 21.4448 20.5694 21.2868 21.5371 21.0957C21.6003 21.382 21.6537 21.6634 21.7071 21.945C21.7151 21.9871 21.7231 22.0293 21.7312 22.0714C21.9148 23.2089 21.9245 24.1449 21.7937 24.8414C21.6609 25.5491 21.4008 25.929 21.1212 26.0926ZM24.0614 18.0281L24.0614 18.0279L24.0507 18.0322C23.7618 18.1478 23.4504 18.2545 23.1298 18.3522C22.8164 17.4208 22.4437 16.4508 22.0114 15.478C22.4409 14.5176 22.8276 13.5648 23.1335 12.6339C24.4214 13.0438 25.4386 13.528 26.1441 14.0293C26.9563 14.6062 27.2476 15.1244 27.2476 15.5C27.2476 15.8139 27.0491 16.2299 26.4972 16.7022C25.9551 17.1661 25.1349 17.6269 24.0614 18.0281ZM20.6561 18.1725C20.7506 18.4261 20.8399 18.6788 20.9259 18.9317C20.6737 18.983 20.416 19.0302 20.1528 19.0741C20.239 18.9272 20.3235 18.7771 20.4035 18.6248C20.4892 18.4747 20.5734 18.3232 20.6561 18.1725ZM15.4818 21.7411C15.3232 21.9345 15.1626 22.1243 15 22.3101C14.8374 22.1243 14.6768 21.9345 14.5182 21.7411C14.6784 21.7447 14.8391 21.7469 15 21.7469C15.1609 21.7469 15.3216 21.7447 15.4818 21.7411ZM9.60112 18.5883C9.68919 18.7495 9.77766 18.9044 9.86583 19.0548C9.59717 19.0102 9.3343 18.9622 9.07707 18.9099C9.16327 18.6582 9.25268 18.4041 9.34705 18.1488C9.42989 18.2965 9.51455 18.4438 9.60112 18.5883ZM9.84722 11.9259C9.76097 12.0728 9.67654 12.2228 9.59654 12.3752C9.5108 12.5253 9.42658 12.6768 9.34393 12.8275C9.24943 12.5739 9.16007 12.3212 9.07412 12.0683C9.32635 12.017 9.584 11.9698 9.84722 11.9259ZM14.5182 9.25886C14.6768 9.06555 14.8374 8.87569 15 8.68993C15.1626 8.87569 15.3232 9.06555 15.4818 9.25887C15.3216 9.25527 15.1609 9.25313 15 9.25313C14.8391 9.25313 14.6784 9.25526 14.5182 9.25886ZM20.3936 12.3805L20.1322 11.9449C20.4015 11.9896 20.6651 12.0377 20.9229 12.0901C20.8382 12.3375 20.7504 12.5873 20.6578 12.8382C20.5719 12.6842 20.4841 12.5312 20.3936 12.3805Z" fill="black" stroke="white"/>
</svg>
