<svg width="30" height="30" viewBox="0 0 30 30" fill="none" xmlns="http://www.w3.org/2000/svg">
<path d="M24.863 10.8292L24.8629 10.8293C26.298 11.3803 27.4441 12.0483 28.2389 12.8217C29.0388 13.6001 29.5 14.5048 29.5 15.5C29.5 16.4952 29.0388 17.3999 28.2389 18.1783C27.445 18.9508 26.3007 19.6181 24.868 20.1688C24.498 20.3199 24.1188 20.4459 23.7367 20.5626C23.8258 20.9548 23.9031 21.3434 23.9686 21.7202L23.9698 21.7267L23.9697 21.7268C24.211 23.2318 24.2066 24.5571 23.9358 25.6342C23.6635 26.7171 23.1128 27.5764 22.2505 28.0749L24.863 10.8292ZM24.863 10.8292L24.8546 10.8262M24.863 10.8292L24.8546 10.8262M24.8546 10.8262C24.4968 10.6961 24.1234 10.5646 23.7359 10.4409C23.8253 10.0475 23.9029 9.6577 23.9686 9.27978L23.9687 9.27979L23.9698 9.27266C24.211 7.75716 24.2066 6.42623 23.9358 5.349C23.6637 4.26697 23.1129 3.41116 22.2478 2.92349C21.7359 2.62784 21.1779 2.5 20.5687 2.5C19.6681 2.5 18.6926 2.83189 17.7061 3.38926C16.8264 3.8863 15.9128 4.57685 15 5.42025C14.0872 4.57685 13.1736 3.8863 12.2939 3.38926C11.3074 2.83189 10.3319 2.5 9.43131 2.5C8.82117 2.5 8.26236 2.62825 7.74977 2.9249M24.8546 10.8262L7.74977 2.9249M7.74977 2.9249C6.88728 3.42347 6.33653 4.28278 6.06422 5.36577C5.79339 6.44287 5.78897 7.76824 6.03027 9.27325L6.03022 9.27325M7.74977 2.9249L6.03022 9.27325M6.03022 9.27325L6.03136 9.27978M6.03022 9.27325L6.03136 9.27978M6.03136 9.27978C6.09689 9.65656 6.17419 10.0452 6.2633 10.4374C5.8812 10.5541 5.50204 10.6801 5.13207 10.8312C3.6993 11.3819 2.55497 12.0492 1.76113 12.8217C0.961172 13.6001 0.5 14.5048 0.5 15.5C0.5 16.4973 0.968652 17.402 1.7702 18.179C2.56712 18.9515 3.71232 19.6193 5.13582 20.1702L5.13578 20.1703M6.03136 9.27978L5.13578 20.1703M5.13578 20.1703L5.14544 20.1738M5.13578 20.1703L5.14544 20.1738M5.14544 20.1738C5.50321 20.3039 5.87661 20.4354 6.26411 20.5591C6.17466 20.9525 6.09709 21.3423 6.03136 21.7202L6.03131 21.7202M5.14544 20.1738L6.03131 21.7202M6.03131 21.7202L6.03017 21.7273M6.03131 21.7202L6.03017 21.7273M6.03017 21.7273C5.78904 23.2428 5.79335 24.5738 6.06422 25.651M6.03017 21.7273L6.06422 25.651M6.06422 25.651C6.33629 26.733 6.88713 27.5888 7.75221 28.0765M6.06422 25.651L7.75221 28.0765M7.75221 28.0765C8.26412 28.3722 8.82214 28.5 9.43131 28.5C10.3421 28.5 11.3229 28.1688 12.3107 27.6107C13.1899 27.1139 14.0984 26.424 15.0018 25.5814C15.914 26.4241 16.827 27.114 17.7061 27.6107C18.6926 28.1681 19.6681 28.5 20.5687 28.5C21.1788 28.5 21.7376 28.3718 22.2502 28.0751L7.75221 28.0765Z" fill="white" stroke="white"/>
<path d="M15 19C16.933 19 18.5 17.433 18.5 15.5C18.5 13.567 16.933 12 15 12C13.067 12 11.5 13.567 11.5 15.5C11.5 17.433 13.067 19 15 19Z" fill="black" stroke="white" stroke-width="2"/>
<path d="M24.6837 11.2961C24.1917 11.1172 23.6773 10.9383 23.1406 10.7818C23.2748 10.2451 23.3866 9.70841 23.476 9.1941C23.9457 6.2424 23.4313 4.16279 22 3.35778C21.5751 3.11181 21.1054 3 20.5687 3C19.0032 3 17.0128 4.16279 15 6.10823C12.9872 4.16279 10.9968 3 9.43131 3C8.89457 3 8.42492 3.11181 8 3.35778C6.56869 4.18515 6.05431 6.26476 6.52396 9.1941C6.61342 9.70841 6.72524 10.2451 6.85943 10.7818C6.32268 10.9383 5.80831 11.0948 5.31629 11.2961C2.52077 12.3694 1 13.8453 1 15.5C1 17.1547 2.54313 18.6306 5.31629 19.7039C5.80831 19.8828 6.32268 20.0617 6.85943 20.2182C6.72524 20.7549 6.61342 21.2916 6.52396 21.8059C6.05431 24.7576 6.56869 26.8372 8 27.6422C8.42492 27.8882 8.89457 28 9.43131 28C11.0192 28 13.0096 26.8372 15 24.8918C17.0128 26.8372 19.0032 28 20.5687 28C21.1054 28 21.5751 27.8882 22 27.6422C23.4313 26.8148 23.9457 24.7352 23.476 21.8059C23.3866 21.2916 23.2748 20.7549 23.1406 20.2182C23.6773 20.0617 24.1917 19.9052 24.6837 19.7039C27.4792 18.6306 29 17.1547 29 15.5C29 13.8453 27.4792 12.3694 24.6837 11.2961ZM21.3738 4.47585C22.2907 5.01252 22.6038 6.66726 22.2236 9.01521C22.1566 9.48479 22.0447 9.97674 21.9105 10.4911C20.7476 10.2227 19.5176 10.0438 18.2204 9.93202C17.4601 8.85868 16.6773 7.89714 15.8946 7.02504C17.5495 5.39267 19.2268 4.2746 20.5911 4.2746C20.8818 4.2746 21.1502 4.34168 21.3738 4.47585ZM18.869 17.7361C18.4665 18.4517 17.9968 19.1673 17.5048 19.8828C16.6773 19.9499 15.8498 19.9723 15 19.9723C14.1278 19.9723 13.3003 19.9499 12.4952 19.8828C12.0032 19.1673 11.5559 18.4517 11.1534 17.7361C10.7284 16.9982 10.3259 16.2379 9.96805 15.5C10.3259 14.7621 10.7284 14.0018 11.1534 13.2639C11.5559 12.5483 12.0256 11.8327 12.5176 11.1172C13.345 11.0501 14.1725 11.0277 15.0224 11.0277C15.8946 11.0277 16.722 11.0501 17.5272 11.1172C18.0192 11.8327 18.4665 12.5483 18.869 13.2639C19.2939 14.0018 19.6965 14.7621 20.0543 15.5C19.6741 16.2379 19.2939 16.9758 18.869 17.7361ZM20.7252 16.9982C21.0607 17.7809 21.3291 18.5411 21.5751 19.3014C20.8147 19.4803 20.0096 19.6145 19.1597 19.7263C19.4281 19.3014 19.7188 18.8542 19.9649 18.3846C20.2332 17.915 20.4792 17.4454 20.7252 16.9982ZM15 23.0581C14.4633 22.4767 13.9489 21.8506 13.4569 21.2021C13.9712 21.2245 14.4856 21.2469 15 21.2469C15.5144 21.2469 16.0288 21.2245 16.5431 21.2021C16.0511 21.8506 15.5367 22.4767 15 23.0581ZM10.8403 19.7039C9.99042 19.5921 9.1853 19.458 8.42492 19.2791C8.67093 18.5411 8.9393 17.7585 9.27476 16.9758C9.52077 17.4231 9.76677 17.8927 10.0351 18.3399C10.3035 18.8318 10.5719 19.2567 10.8403 19.7039ZM9.27476 14.0018C8.9393 13.2191 8.67093 12.4589 8.42492 11.6986C9.1853 11.5197 9.99042 11.3855 10.8403 11.2737C10.5719 11.6986 10.2812 12.1458 10.0351 12.6154C9.76677 13.085 9.52077 13.5546 9.27476 14.0018ZM15 7.94186C15.5367 8.52326 16.0511 9.14937 16.5431 9.79785C16.0288 9.77549 15.5144 9.75313 15 9.75313C14.4856 9.75313 13.9712 9.77549 13.4569 9.79785C13.9489 9.14937 14.4633 8.52326 15 7.94186ZM19.9649 12.6377L19.1597 11.2961C20.0096 11.4079 20.8147 11.542 21.5751 11.7209C21.3291 12.4589 21.0607 13.2415 20.7252 14.0242C20.4792 13.5546 20.2332 13.085 19.9649 12.6377ZM7.77636 9.01521C7.39617 6.66726 7.70927 5.01252 8.6262 4.47585C8.84984 4.34168 9.11821 4.2746 9.40895 4.2746C10.7508 4.2746 12.4281 5.3703 14.1054 7.02504C13.3227 7.87478 12.5399 8.85868 11.7796 9.93202C10.4824 10.0438 9.2524 10.2451 8.08946 10.4911C7.95527 9.97674 7.86582 9.48479 7.77636 9.01521ZM2.2524 15.5C2.2524 14.449 3.52716 13.3309 5.76358 12.5036C6.21086 12.3247 6.70288 12.1682 7.19489 12.034C7.55272 13.1521 8 14.3372 8.53674 15.5224C8 16.7075 7.53035 17.8703 7.19489 18.9884C4.10863 18.0939 2.2524 16.7522 2.2524 15.5ZM8.6262 26.5242C7.70927 25.9875 7.39617 24.3327 7.77636 21.9848C7.84345 21.5152 7.95527 21.0233 8.08946 20.5089C9.2524 20.7773 10.4824 20.9562 11.7796 21.068C12.5399 22.1413 13.3227 23.1029 14.1054 23.975C12.4505 25.6073 10.7732 26.7254 9.40895 26.7254C9.11821 26.7254 8.84984 26.6583 8.6262 26.5242ZM22.2236 21.9848C22.6038 24.3327 22.2907 25.9875 21.3738 26.5242C21.1502 26.6583 20.8818 26.7254 20.5911 26.7254C19.2492 26.7254 17.5719 25.6297 15.8946 23.975C16.6773 23.1252 17.4601 22.1413 18.2204 21.068C19.5176 20.9562 20.7476 20.7549 21.9105 20.5089C22.0447 21.0233 22.1342 21.5152 22.2236 21.9848ZM24.2364 18.4964C23.7891 18.6753 23.2971 18.8318 22.8051 18.966C22.4473 17.8479 22 16.6628 21.4633 15.4776C22 14.2925 22.4696 13.1297 22.8051 12.0116C25.8914 12.9061 27.7476 14.2478 27.7476 15.5C27.7476 16.551 26.4505 17.6691 24.2364 18.4964Z" fill="black"/>
</svg>
