<svg width="30" height="30" viewBox="0 0 30 30" fill="none" xmlns="http://www.w3.org/2000/svg">
<g clip-path="url(#clip0_7_71)">
<path d="M16.8912 27.3582C17.3882 27.0032 18.0982 26.4353 18.4887 26.0803C25.2949 28.7842 27.5154 23.4993 27.3381 21.4823C27.1418 19.2489 24.3686 12.875 14.9389 12.8749C14.4955 13.9141 13.1989 14.4355 12.1265 13.8143C10.8104 13.0519 10.8104 11.1358 12.1265 10.3735C13.1489 9.78129 14.3748 10.2276 14.8712 11.1709C20.5961 11.1418 27.0143 13.5734 28.8091 20.3392C30.1034 25.2188 24.6728 30.9071 16.8912 27.3582ZM20.4135 20.457C21.3606 20.3454 22.1817 19.5549 22.1817 18.4836C22.1817 16.959 20.5189 16.0009 19.1959 16.7632C18.0352 17.432 17.893 18.9885 18.7687 19.8752C15.6274 25.7321 8.61143 28.0222 4.90913 25.7992C2.8589 24.5682 0.744662 20.1614 5.67374 16.1052C5.53174 15.6437 5.31875 14.8628 5.21226 14.2948C-3.64971 20.973 2.7295 31.5992 12.7215 27.4611C15.423 26.3422 18.352 24.3869 20.4135 20.457ZM9.60699 22.7244C10.9319 23.4867 12.597 22.5286 12.597 21.004C12.597 19.7317 11.4374 18.8548 10.2836 19.0422C2.95463 5.3525 18.385 -2.77707 20.3701 10.177L22.145 10.7095C20.8544 0.289204 13.0633 1.24267 10.5673 3.35311C8.69667 4.93484 3.69609 10.5005 8.86255 20.0343C8.36469 20.9306 8.61281 22.1523 9.60699 22.7244Z" fill="black"/>
<path fill-rule="evenodd" clip-rule="evenodd" d="M18.3552 24.9512L18.8579 25.1509C21.9844 26.393 23.8208 25.739 24.8662 24.8057C26.0115 23.7832 26.4033 22.268 26.3419 21.5698C26.1884 19.8224 23.8863 14.1277 15.5017 13.883C14.6481 15.0139 13.0204 15.4876 11.6253 14.6796C9.64417 13.532 9.64417 10.6557 11.6253 9.50816C12.9668 8.73111 14.5228 9.14088 15.3982 10.1751C16.7216 10.2026 18.0888 10.3586 19.4337 10.668L19.3816 10.3284C18.9147 7.28163 17.6973 5.7062 16.4613 5.05751C15.2325 4.41265 13.7382 4.55145 12.3884 5.45047C9.79943 7.17478 7.79799 11.801 10.8877 18.032C12.3275 18.1761 13.597 19.3621 13.597 21.004C13.597 23.3037 11.0947 24.7341 9.10829 23.5911C7.79723 22.8368 7.35645 21.3411 7.75733 20.0841C7.16805 18.9456 6.71568 17.8569 6.38052 16.8187L6.30917 16.8774C4.05418 18.733 3.53805 20.5413 3.66966 21.9163C3.80817 23.3635 4.67123 24.4899 5.42391 24.9419C6.9176 25.8387 9.2469 25.8952 11.6831 24.9366C13.9255 24.0543 16.1182 22.358 17.5803 19.9413C16.8326 18.5946 17.1979 16.7603 18.6966 15.8968C20.6833 14.7521 23.1817 16.1861 23.1817 18.4836C23.1817 19.8929 22.2424 20.9656 21.0766 21.3328C20.2669 22.7849 19.341 23.9728 18.3552 24.9512ZM15.0707 27.4297C14.4105 27.8034 13.7504 28.1173 13.1041 28.3849C7.73651 30.6079 3.06748 28.9234 1.03302 25.4382C-1.00978 21.9386 -0.138792 17.0751 4.61044 13.4962L5.60736 12.7449C5.52683 11.1367 5.73532 9.69465 6.11858 8.42309C7.03062 5.39713 8.89512 3.45748 9.92166 2.58949C11.4251 1.31826 14.358 0.469063 17.1221 1.3828C20.0107 2.33771 22.4592 5.11071 23.1374 10.5865L23.3216 12.0737C26.2815 13.6065 28.7356 16.1622 29.7756 20.0828C30.5398 22.9637 29.3077 26.0119 26.8446 27.8161C24.3447 29.6472 20.6494 30.1713 16.4763 28.268L14.9021 27.5501L15.0707 27.4297ZM20.4135 20.457C21.3606 20.3454 22.1817 19.5548 22.1817 18.4836C22.1817 16.959 20.5189 16.0009 19.1959 16.7632C18.0352 17.432 17.893 18.9885 18.7687 19.8752C15.6274 25.7321 8.61144 28.0222 4.90914 25.7992C2.85891 24.5682 0.744675 20.1613 5.67375 16.1052C5.61208 15.9048 5.53703 15.6441 5.46312 15.3668C5.36685 15.0056 5.27252 14.6161 5.21227 14.2948C4.90375 14.5273 4.61369 14.7646 4.34162 15.0059C-3.20114 21.695 3.07738 31.4551 12.7215 27.461C15.423 26.3422 18.352 24.3869 20.4135 20.457ZM8.86256 20.0342C3.6961 10.5005 8.69669 4.93482 10.5673 3.3531C12.9723 1.31953 20.2939 0.360191 21.9787 9.61551C22.0424 9.96539 22.098 10.3299 22.145 10.7094L20.3701 10.177C18.385 -2.77708 2.95465 5.35248 10.2836 19.0422C11.4374 18.8548 12.597 19.7316 12.597 21.004C12.597 22.5286 10.9319 23.4867 9.607 22.7243C8.61282 22.1523 8.3647 20.9306 8.86256 20.0342ZM14.8712 11.1709C14.3748 10.2276 13.1489 9.78128 12.1265 10.3735C10.8104 11.1358 10.8104 13.0519 12.1265 13.8142C13.1989 14.4354 14.4955 13.9141 14.9389 12.8748C24.3687 12.875 27.1418 19.2489 27.3381 21.4823C27.5154 23.4993 25.2949 28.7842 18.4887 26.0803C18.3095 26.2431 18.0631 26.4508 17.8009 26.6622C17.4916 26.9116 17.1602 27.1661 16.8913 27.3582C17.2574 27.5252 17.6184 27.6718 17.9737 27.7989C25.1691 30.3735 30.0425 24.9891 28.8091 20.3392C27.0143 13.5734 20.5961 11.1418 14.8712 11.1709Z" fill="white"/>
</g>
<defs>
<clipPath id="clip0_7_71">
<rect width="30" height="30" fill="white"/>
</clipPath>
</defs>
</svg>
