<svg width="30" height="30" viewBox="0 0 30 30" fill="none" xmlns="http://www.w3.org/2000/svg">
<mask id="path-1-outside-1_5_41" maskUnits="userSpaceOnUse" x="-1" y="4" width="32" height="23" fill="black">
<rect fill="white" x="-1" y="4" width="32" height="23"/>
<path d="M25.1044 17.0505C24.1252 17.0562 23.2778 17.2912 22.5668 17.6412C22.3043 17.1214 22.0418 16.6677 21.9981 16.3286C21.9486 15.9349 21.8887 15.6942 21.9486 15.2239C22.0086 14.7536 22.2824 14.0864 22.2824 14.0317C22.2772 13.9823 22.2221 13.7416 21.659 13.7364C21.0959 13.7311 20.609 13.8458 20.5543 13.9936C20.4566 14.2669 20.3779 14.5465 20.3189 14.8306C20.2204 15.3447 19.1923 17.166 18.6069 18.1233C18.4153 17.7514 18.2512 17.4233 18.2184 17.1608C18.1689 16.767 18.109 16.5264 18.1689 16.0561C18.2289 15.5857 18.5028 14.9185 18.5028 14.8638C18.4975 14.8144 18.4424 14.5738 17.8793 14.5685C17.3162 14.5633 16.8293 14.6779 16.7746 14.8258C16.7199 14.9737 16.6595 15.3237 16.5392 15.6627C16.4241 16.0018 15.0569 19.043 14.7016 19.8357C14.521 20.2404 14.3626 20.5633 14.2475 20.7821C14.1324 21.0008 14.2423 20.7987 14.2313 20.8206L14.0782 21.1107V21.1159C14.0016 21.2529 13.9194 21.3841 13.8813 21.3841C13.8542 21.3841 13.7991 21.0175 13.8922 20.5143C14.0948 19.4586 14.587 17.8123 14.5813 17.7523C14.5813 17.7252 14.6745 17.4351 14.2641 17.2872C13.8647 17.1394 13.7225 17.3857 13.6897 17.3857C13.6569 17.3857 13.6293 17.4732 13.6293 17.4732C13.6293 17.4732 14.0725 15.619 12.7814 15.619C11.972 15.619 10.8563 16.4997 10.3038 17.3034L7.51418 18.8295L7.4538 18.7638C5.89057 17.0943 2.99729 15.913 3.11761 13.6707C3.16136 12.8557 3.44575 10.7062 8.67403 8.10296C12.9564 5.97008 16.3861 6.55503 16.9824 7.85664C17.8303 9.71607 15.1501 13.1724 10.698 13.6712C9.0026 13.8628 8.11095 13.2061 7.8865 12.9602C7.65112 12.703 7.61831 12.692 7.53081 12.7415C7.38861 12.818 7.47612 13.0477 7.53081 13.1847C7.66206 13.5294 8.20895 14.142 9.13867 14.4482C9.95376 14.7164 11.9444 14.8638 14.3512 13.9341C17.0476 12.8894 19.1533 9.99083 18.5351 7.56831C17.906 5.10161 13.8152 4.29221 9.94807 5.66513C7.64587 6.48459 5.15642 7.76388 3.36262 9.44306C1.22537 11.4337 0.886293 13.1733 1.02805 13.8952C1.52594 16.4713 5.07504 18.1504 6.49696 19.3921L6.30008 19.5015C5.58912 19.8515 2.88179 21.2682 2.20365 22.7667C1.438 24.462 2.32396 25.6818 2.9146 25.8459C4.74122 26.3547 6.61159 25.4412 7.62356 23.937C8.62984 22.4328 8.50952 20.4806 8.04488 19.589L8.02826 19.5562L8.58609 19.228C8.94704 19.0145 9.30274 18.8177 9.61424 18.6483C9.43924 19.1244 9.31324 19.6874 9.24761 20.5078C9.17104 21.4703 9.56481 22.7172 10.0846 23.2099C10.3143 23.4234 10.5877 23.4286 10.7575 23.4286C11.359 23.4286 11.6325 22.9307 11.9335 22.3348C12.3054 21.6072 12.6335 20.765 12.6335 20.765C12.6335 20.765 12.2231 23.0458 13.3445 23.0458C13.7549 23.0458 14.1648 22.5151 14.3508 22.2416V22.2469C14.3508 22.2469 14.3617 22.2303 14.3836 22.1922C14.4273 22.1266 14.4492 22.0881 14.4492 22.0881V22.0771C14.6133 21.7927 14.9799 21.1417 15.5268 20.0646C16.2325 18.6755 16.9107 16.9363 16.9107 16.9363C16.9107 16.9363 16.9763 17.3629 17.1788 18.0629C17.2992 18.4786 17.5617 18.9327 17.7642 19.3755L17.5017 19.7364L17.507 19.7421C17.367 19.9276 17.2229 20.11 17.0747 20.289C16.5169 20.9562 15.8497 21.7166 15.7622 21.9354C15.6581 22.1926 15.6799 22.3838 15.8825 22.537C16.0304 22.6463 16.2929 22.6682 16.5716 22.6463C17.0747 22.6135 17.4247 22.4875 17.5997 22.411C17.9155 22.2984 18.2137 22.1418 18.4857 21.9459C19.0326 21.5412 19.3664 20.9667 19.3336 20.2011C19.317 19.7797 19.1805 19.3641 19.0107 18.9703L19.1586 18.7516C20.0227 17.4881 20.6899 16.0989 20.6899 16.0989C20.6899 16.0989 20.7555 16.5255 20.9581 17.2255C21.0622 17.5812 21.27 17.9693 21.456 18.3521C20.6466 19.0141 20.1378 19.7797 19.9627 20.2829C19.6399 21.2126 19.8914 21.6339 20.3674 21.7324C20.581 21.7761 20.8872 21.6777 21.1169 21.5792C21.4013 21.486 21.7461 21.3277 22.0632 21.0923C22.6101 20.6876 23.1352 20.1241 23.108 19.3641C23.0914 19.0141 22.9987 18.6693 22.8726 18.3412C23.5617 18.0568 24.4534 17.8928 25.5852 18.0293C28.0191 18.3136 28.5004 19.834 28.4072 20.4684C28.314 21.1028 27.8056 21.4528 27.6359 21.5622C27.4661 21.6663 27.4114 21.7044 27.428 21.7809C27.4499 21.896 27.5265 21.8903 27.6744 21.8684C27.8769 21.8356 28.9541 21.3487 28.9978 20.1783C29.0635 18.6742 27.6359 17.0335 25.104 17.0501L25.1044 17.0505ZM6.33333 23.3792C5.52918 24.2599 4.39734 24.5933 3.91607 24.3089C3.39631 24.0079 3.59888 22.712 4.58897 21.7766C5.19055 21.2078 5.97282 20.6828 6.4869 20.3599L6.98479 20.0589C7.0176 20.037 7.03948 20.0261 7.03948 20.0261C7.07798 20.0042 7.12173 19.9766 7.16548 19.9495C7.53212 21.2839 7.18211 22.4543 6.33421 23.3787L6.33333 23.3792ZM12.2135 19.3812C11.9344 20.065 11.3437 21.8203 10.9885 21.7219C10.6822 21.6396 10.4963 20.3109 10.9281 18.9979C11.1469 18.336 11.6119 17.5484 11.8854 17.2422C12.3286 16.75 12.8098 16.5859 12.9302 16.788C13.0724 17.0505 12.3885 18.9542 12.2135 19.3812ZM17.0647 21.7C16.9443 21.7604 16.835 21.8041 16.7855 21.7713C16.747 21.7494 16.835 21.6672 16.835 21.6672C16.835 21.6672 17.4422 21.0162 17.6829 20.7156L18.1589 20.1083V20.1739C18.1589 20.9615 17.4042 21.4865 17.0651 21.7H17.0647ZM20.8054 20.8468C20.7179 20.7812 20.7288 20.5786 21.0242 19.9443C21.1392 19.6927 21.4017 19.2714 21.8554 18.8723C21.9101 19.0364 21.9429 19.1952 21.9377 19.3427C21.932 20.3271 21.232 20.6937 20.8054 20.8468Z"/>
</mask>
<path d="M25.1044 17.0505C24.1252 17.0562 23.2778 17.2912 22.5668 17.6412C22.3043 17.1214 22.0418 16.6677 21.9981 16.3286C21.9486 15.9349 21.8887 15.6942 21.9486 15.2239C22.0086 14.7536 22.2824 14.0864 22.2824 14.0317C22.2772 13.9823 22.2221 13.7416 21.659 13.7364C21.0959 13.7311 20.609 13.8458 20.5543 13.9936C20.4566 14.2669 20.3779 14.5465 20.3189 14.8306C20.2204 15.3447 19.1923 17.166 18.6069 18.1233C18.4153 17.7514 18.2512 17.4233 18.2184 17.1608C18.1689 16.767 18.109 16.5264 18.1689 16.0561C18.2289 15.5857 18.5028 14.9185 18.5028 14.8638C18.4975 14.8144 18.4424 14.5738 17.8793 14.5685C17.3162 14.5633 16.8293 14.6779 16.7746 14.8258C16.7199 14.9737 16.6595 15.3237 16.5392 15.6627C16.4241 16.0018 15.0569 19.043 14.7016 19.8357C14.521 20.2404 14.3626 20.5633 14.2475 20.7821C14.1324 21.0008 14.2423 20.7987 14.2313 20.8206L14.0782 21.1107V21.1159C14.0016 21.2529 13.9194 21.3841 13.8813 21.3841C13.8542 21.3841 13.7991 21.0175 13.8922 20.5143C14.0948 19.4586 14.587 17.8123 14.5813 17.7523C14.5813 17.7252 14.6745 17.4351 14.2641 17.2872C13.8647 17.1394 13.7225 17.3857 13.6897 17.3857C13.6569 17.3857 13.6293 17.4732 13.6293 17.4732C13.6293 17.4732 14.0725 15.619 12.7814 15.619C11.972 15.619 10.8563 16.4997 10.3038 17.3034L7.51418 18.8295L7.4538 18.7638C5.89057 17.0943 2.99729 15.913 3.11761 13.6707C3.16136 12.8557 3.44575 10.7062 8.67403 8.10296C12.9564 5.97008 16.3861 6.55503 16.9824 7.85664C17.8303 9.71607 15.1501 13.1724 10.698 13.6712C9.0026 13.8628 8.11095 13.2061 7.8865 12.9602C7.65112 12.703 7.61831 12.692 7.53081 12.7415C7.38861 12.818 7.47612 13.0477 7.53081 13.1847C7.66206 13.5294 8.20895 14.142 9.13867 14.4482C9.95376 14.7164 11.9444 14.8638 14.3512 13.9341C17.0476 12.8894 19.1533 9.99083 18.5351 7.56831C17.906 5.10161 13.8152 4.29221 9.94807 5.66513C7.64587 6.48459 5.15642 7.76388 3.36262 9.44306C1.22537 11.4337 0.886293 13.1733 1.02805 13.8952C1.52594 16.4713 5.07504 18.1504 6.49696 19.3921L6.30008 19.5015C5.58912 19.8515 2.88179 21.2682 2.20365 22.7667C1.438 24.462 2.32396 25.6818 2.9146 25.8459C4.74122 26.3547 6.61159 25.4412 7.62356 23.937C8.62984 22.4328 8.50952 20.4806 8.04488 19.589L8.02826 19.5562L8.58609 19.228C8.94704 19.0145 9.30274 18.8177 9.61424 18.6483C9.43924 19.1244 9.31324 19.6874 9.24761 20.5078C9.17104 21.4703 9.56481 22.7172 10.0846 23.2099C10.3143 23.4234 10.5877 23.4286 10.7575 23.4286C11.359 23.4286 11.6325 22.9307 11.9335 22.3348C12.3054 21.6072 12.6335 20.765 12.6335 20.765C12.6335 20.765 12.2231 23.0458 13.3445 23.0458C13.7549 23.0458 14.1648 22.5151 14.3508 22.2416V22.2469C14.3508 22.2469 14.3617 22.2303 14.3836 22.1922C14.4273 22.1266 14.4492 22.0881 14.4492 22.0881V22.0771C14.6133 21.7927 14.9799 21.1417 15.5268 20.0646C16.2325 18.6755 16.9107 16.9363 16.9107 16.9363C16.9107 16.9363 16.9763 17.3629 17.1788 18.0629C17.2992 18.4786 17.5617 18.9327 17.7642 19.3755L17.5017 19.7364L17.507 19.7421C17.367 19.9276 17.2229 20.11 17.0747 20.289C16.5169 20.9562 15.8497 21.7166 15.7622 21.9354C15.6581 22.1926 15.6799 22.3838 15.8825 22.537C16.0304 22.6463 16.2929 22.6682 16.5716 22.6463C17.0747 22.6135 17.4247 22.4875 17.5997 22.411C17.9155 22.2984 18.2137 22.1418 18.4857 21.9459C19.0326 21.5412 19.3664 20.9667 19.3336 20.2011C19.317 19.7797 19.1805 19.3641 19.0107 18.9703L19.1586 18.7516C20.0227 17.4881 20.6899 16.0989 20.6899 16.0989C20.6899 16.0989 20.7555 16.5255 20.9581 17.2255C21.0622 17.5812 21.27 17.9693 21.456 18.3521C20.6466 19.0141 20.1378 19.7797 19.9627 20.2829C19.6399 21.2126 19.8914 21.6339 20.3674 21.7324C20.581 21.7761 20.8872 21.6777 21.1169 21.5792C21.4013 21.486 21.7461 21.3277 22.0632 21.0923C22.6101 20.6876 23.1352 20.1241 23.108 19.3641C23.0914 19.0141 22.9987 18.6693 22.8726 18.3412C23.5617 18.0568 24.4534 17.8928 25.5852 18.0293C28.0191 18.3136 28.5004 19.834 28.4072 20.4684C28.314 21.1028 27.8056 21.4528 27.6359 21.5622C27.4661 21.6663 27.4114 21.7044 27.428 21.7809C27.4499 21.896 27.5265 21.8903 27.6744 21.8684C27.8769 21.8356 28.9541 21.3487 28.9978 20.1783C29.0635 18.6742 27.6359 17.0335 25.104 17.0501L25.1044 17.0505ZM6.33333 23.3792C5.52918 24.2599 4.39734 24.5933 3.91607 24.3089C3.39631 24.0079 3.59888 22.712 4.58897 21.7766C5.19055 21.2078 5.97282 20.6828 6.4869 20.3599L6.98479 20.0589C7.0176 20.037 7.03948 20.0261 7.03948 20.0261C7.07798 20.0042 7.12173 19.9766 7.16548 19.9495C7.53212 21.2839 7.18211 22.4543 6.33421 23.3787L6.33333 23.3792ZM12.2135 19.3812C11.9344 20.065 11.3437 21.8203 10.9885 21.7219C10.6822 21.6396 10.4963 20.3109 10.9281 18.9979C11.1469 18.336 11.6119 17.5484 11.8854 17.2422C12.3286 16.75 12.8098 16.5859 12.9302 16.788C13.0724 17.0505 12.3885 18.9542 12.2135 19.3812ZM17.0647 21.7C16.9443 21.7604 16.835 21.8041 16.7855 21.7713C16.747 21.7494 16.835 21.6672 16.835 21.6672C16.835 21.6672 17.4422 21.0162 17.6829 20.7156L18.1589 20.1083V20.1739C18.1589 20.9615 17.4042 21.4865 17.0651 21.7H17.0647ZM20.8054 20.8468C20.7179 20.7812 20.7288 20.5786 21.0242 19.9443C21.1392 19.6927 21.4017 19.2714 21.8554 18.8723C21.9101 19.0364 21.9429 19.1952 21.9377 19.3427C21.932 20.3271 21.232 20.6937 20.8054 20.8468Z" fill="black"/>
<path d="M25.1044 17.0505C24.1252 17.0562 23.2778 17.2912 22.5668 17.6412C22.3043 17.1214 22.0418 16.6677 21.9981 16.3286C21.9486 15.9349 21.8887 15.6942 21.9486 15.2239C22.0086 14.7536 22.2824 14.0864 22.2824 14.0317C22.2772 13.9823 22.2221 13.7416 21.659 13.7364C21.0959 13.7311 20.609 13.8458 20.5543 13.9936C20.4566 14.2669 20.3779 14.5465 20.3189 14.8306C20.2204 15.3447 19.1923 17.166 18.6069 18.1233C18.4153 17.7514 18.2512 17.4233 18.2184 17.1608C18.1689 16.767 18.109 16.5264 18.1689 16.0561C18.2289 15.5857 18.5028 14.9185 18.5028 14.8638C18.4975 14.8144 18.4424 14.5738 17.8793 14.5685C17.3162 14.5633 16.8293 14.6779 16.7746 14.8258C16.7199 14.9737 16.6595 15.3237 16.5392 15.6627C16.4241 16.0018 15.0569 19.043 14.7016 19.8357C14.521 20.2404 14.3626 20.5633 14.2475 20.7821C14.1324 21.0008 14.2423 20.7987 14.2313 20.8206L14.0782 21.1107V21.1159C14.0016 21.2529 13.9194 21.3841 13.8813 21.3841C13.8542 21.3841 13.7991 21.0175 13.8922 20.5143C14.0948 19.4586 14.587 17.8123 14.5813 17.7523C14.5813 17.7252 14.6745 17.4351 14.2641 17.2872C13.8647 17.1394 13.7225 17.3857 13.6897 17.3857C13.6569 17.3857 13.6293 17.4732 13.6293 17.4732C13.6293 17.4732 14.0725 15.619 12.7814 15.619C11.972 15.619 10.8563 16.4997 10.3038 17.3034L7.51418 18.8295L7.4538 18.7638C5.89057 17.0943 2.99729 15.913 3.11761 13.6707C3.16136 12.8557 3.44575 10.7062 8.67403 8.10296C12.9564 5.97008 16.3861 6.55503 16.9824 7.85664C17.8303 9.71607 15.1501 13.1724 10.698 13.6712C9.0026 13.8628 8.11095 13.2061 7.8865 12.9602C7.65112 12.703 7.61831 12.692 7.53081 12.7415C7.38861 12.818 7.47612 13.0477 7.53081 13.1847C7.66206 13.5294 8.20895 14.142 9.13867 14.4482C9.95376 14.7164 11.9444 14.8638 14.3512 13.9341C17.0476 12.8894 19.1533 9.99083 18.5351 7.56831C17.906 5.10161 13.8152 4.29221 9.94807 5.66513C7.64587 6.48459 5.15642 7.76388 3.36262 9.44306C1.22537 11.4337 0.886293 13.1733 1.02805 13.8952C1.52594 16.4713 5.07504 18.1504 6.49696 19.3921L6.30008 19.5015C5.58912 19.8515 2.88179 21.2682 2.20365 22.7667C1.438 24.462 2.32396 25.6818 2.9146 25.8459C4.74122 26.3547 6.61159 25.4412 7.62356 23.937C8.62984 22.4328 8.50952 20.4806 8.04488 19.589L8.02826 19.5562L8.58609 19.228C8.94704 19.0145 9.30274 18.8177 9.61424 18.6483C9.43924 19.1244 9.31324 19.6874 9.24761 20.5078C9.17104 21.4703 9.56481 22.7172 10.0846 23.2099C10.3143 23.4234 10.5877 23.4286 10.7575 23.4286C11.359 23.4286 11.6325 22.9307 11.9335 22.3348C12.3054 21.6072 12.6335 20.765 12.6335 20.765C12.6335 20.765 12.2231 23.0458 13.3445 23.0458C13.7549 23.0458 14.1648 22.5151 14.3508 22.2416V22.2469C14.3508 22.2469 14.3617 22.2303 14.3836 22.1922C14.4273 22.1266 14.4492 22.0881 14.4492 22.0881V22.0771C14.6133 21.7927 14.9799 21.1417 15.5268 20.0646C16.2325 18.6755 16.9107 16.9363 16.9107 16.9363C16.9107 16.9363 16.9763 17.3629 17.1788 18.0629C17.2992 18.4786 17.5617 18.9327 17.7642 19.3755L17.5017 19.7364L17.507 19.7421C17.367 19.9276 17.2229 20.11 17.0747 20.289C16.5169 20.9562 15.8497 21.7166 15.7622 21.9354C15.6581 22.1926 15.6799 22.3838 15.8825 22.537C16.0304 22.6463 16.2929 22.6682 16.5716 22.6463C17.0747 22.6135 17.4247 22.4875 17.5997 22.411C17.9155 22.2984 18.2137 22.1418 18.4857 21.9459C19.0326 21.5412 19.3664 20.9667 19.3336 20.2011C19.317 19.7797 19.1805 19.3641 19.0107 18.9703L19.1586 18.7516C20.0227 17.4881 20.6899 16.0989 20.6899 16.0989C20.6899 16.0989 20.7555 16.5255 20.9581 17.2255C21.0622 17.5812 21.27 17.9693 21.456 18.3521C20.6466 19.0141 20.1378 19.7797 19.9627 20.2829C19.6399 21.2126 19.8914 21.6339 20.3674 21.7324C20.581 21.7761 20.8872 21.6777 21.1169 21.5792C21.4013 21.486 21.7461 21.3277 22.0632 21.0923C22.6101 20.6876 23.1352 20.1241 23.108 19.3641C23.0914 19.0141 22.9987 18.6693 22.8726 18.3412C23.5617 18.0568 24.4534 17.8928 25.5852 18.0293C28.0191 18.3136 28.5004 19.834 28.4072 20.4684C28.314 21.1028 27.8056 21.4528 27.6359 21.5622C27.4661 21.6663 27.4114 21.7044 27.428 21.7809C27.4499 21.896 27.5265 21.8903 27.6744 21.8684C27.8769 21.8356 28.9541 21.3487 28.9978 20.1783C29.0635 18.6742 27.6359 17.0335 25.104 17.0501L25.1044 17.0505ZM6.33333 23.3792C5.52918 24.2599 4.39734 24.5933 3.91607 24.3089C3.39631 24.0079 3.59888 22.712 4.58897 21.7766C5.19055 21.2078 5.97282 20.6828 6.4869 20.3599L6.98479 20.0589C7.0176 20.037 7.03948 20.0261 7.03948 20.0261C7.07798 20.0042 7.12173 19.9766 7.16548 19.9495C7.53212 21.2839 7.18211 22.4543 6.33421 23.3787L6.33333 23.3792ZM12.2135 19.3812C11.9344 20.065 11.3437 21.8203 10.9885 21.7219C10.6822 21.6396 10.4963 20.3109 10.9281 18.9979C11.1469 18.336 11.6119 17.5484 11.8854 17.2422C12.3286 16.75 12.8098 16.5859 12.9302 16.788C13.0724 17.0505 12.3885 18.9542 12.2135 19.3812ZM17.0647 21.7C16.9443 21.7604 16.835 21.8041 16.7855 21.7713C16.747 21.7494 16.835 21.6672 16.835 21.6672C16.835 21.6672 17.4422 21.0162 17.6829 20.7156L18.1589 20.1083V20.1739C18.1589 20.9615 17.4042 21.4865 17.0651 21.7H17.0647ZM20.8054 20.8468C20.7179 20.7812 20.7288 20.5786 21.0242 19.9443C21.1392 19.6927 21.4017 19.2714 21.8554 18.8723C21.9101 19.0364 21.9429 19.1952 21.9377 19.3427C21.932 20.3271 21.232 20.6937 20.8054 20.8468Z" stroke="white" stroke-width="2" mask="url(#path-1-outside-1_5_41)"/>
</svg>
