<svg width="30" height="30" viewBox="0 0 30 30" fill="none" xmlns="http://www.w3.org/2000/svg">
<g clip-path="url(#clip0_5_52)">
<rect width="30" height="30" fill="black"/>
<path d="M2 15V28H28V2H2V15ZM22.9511 13.9632C23.6117 14.1282 24.1146 14.4248 24.5802 14.9025C24.8174 15.156 25.1725 15.6216 25.2026 15.7361C25.2107 15.7703 24.0813 16.5275 23.3956 16.9508C23.3704 16.9679 23.2688 16.8622 23.1583 16.6965C22.8244 16.2098 22.4726 15.9986 21.9355 15.9604C21.1482 15.9092 20.6404 16.3203 20.6444 17.0101C20.6404 17.1791 20.6786 17.3489 20.7541 17.4968C20.928 17.8567 21.2538 18.0721 22.2605 18.5084C24.1228 19.3079 24.9182 19.8368 25.413 20.5859C25.9671 21.4236 26.0898 22.761 25.7177 23.7596C25.3033 24.8386 24.2788 25.5747 22.8398 25.816C22.3954 25.8964 21.3375 25.8834 20.8589 25.7949C19.8141 25.6088 18.8236 25.0921 18.2142 24.4152C17.9729 24.1528 17.5074 23.463 17.5374 23.4167C17.5504 23.3996 17.6561 23.3322 17.7747 23.2639C17.8933 23.1957 18.3288 22.9422 18.7399 22.7049L19.4891 22.2694L19.6459 22.5018C19.8661 22.8357 20.3438 23.2932 20.6322 23.4451C21.4618 23.8855 22.6001 23.8221 23.1632 23.3184C23.3915 23.1283 23.5191 22.8358 23.502 22.54C23.502 22.2394 23.4638 22.1045 23.307 21.8794C23.1039 21.5918 22.6936 21.3464 21.5211 20.8386C20.1797 20.2585 19.5996 19.9034 19.0755 19.3323C18.7456 18.9553 18.5002 18.5116 18.3605 18.0331C18.263 17.665 18.2378 16.742 18.3142 16.3739C18.5896 15.0748 19.5711 14.1737 20.98 13.9072C21.4374 13.8186 22.5034 13.8519 22.9519 13.9624L22.9511 13.9632ZM16.8492 15.0512L16.8574 16.1131H13.4717V25.7323H11.0764V16.1131H7.69563V15.0723C7.69563 14.4922 7.70863 14.0104 7.72488 13.9974C7.73788 13.9803 9.79431 13.9722 12.2911 13.9762L16.8363 13.9892L16.8492 15.0512Z" fill="white"/>
</g>
<defs>
<clipPath id="clip0_5_52">
<rect width="30" height="30" fill="white"/>
</clipPath>
</defs>
</svg>
